<svg id="Layer_1" data-name="Layer 1" xmlns="http://www.w3.org/2000/svg" viewBox="0 0 58 76"><defs><style>.cls-1{fill:#69818d;stroke:#69818d;stroke-miterlimit:10;stroke-width:4px;}</style></defs><title>studyokee_logo</title><ellipse class="cls-1" cx="14.88" cy="23.45" rx="8.1" ry="21.45"/><path class="cls-1" d="M32.47,24.64c2.5,0.52,5.42.51,8,1.34,6.6,2.08,11.32,3.95,14.39,8.28,5.68,8,2.77,18.41.82,21.37a30.63,30.63,0,0,1-8.3,8.91c-2.8,1.83-5.2,1.33-6.25,1.95-3,1.78,11.15-8.2,11.15-18.54,0-2.86-1.2-8.87-6-11.28s-8.57-2.34-14,.37a6.41,6.41,0,0,0-3.61,4.75v-21S30,24.13,32.47,24.64Z" transform="translate(-7 -7)"/><rect class="cls-1" x="2" y="55.74" width="54" height="18.26"/></svg>